<svg width="1110" height="168" viewBox="0 0 1110 168" fill="none" xmlns="http://www.w3.org/2000/svg">
<rect width="1110" height="168" rx="10" fill="#3A3054"/>
<mask id="mask0_0_881" style="mask-type:luminance" maskUnits="userSpaceOnUse" x="0" y="0" width="1110" height="168">
<rect width="1110" height="168" rx="10" fill="white"/>
</mask>
<g mask="url(#mask0_0_881)">
<path fill-rule="evenodd" clip-rule="evenodd" d="M647 -93.9235C647 -41.2004 662.5 -3.43848 720 20.9529C777.5 45.3442 833.055 23.0865 888.786 35.847C944.517 48.6075 944.517 130.809 997 181.396C1049.48 231.983 1160.14 244.27 1250.12 192.948C1340.1 141.626 1380.88 21.7965 1354 -48.8591C1327.12 -119.515 1275.59 -184 1027 -184C778.407 -184 647 -146.647 647 -93.9235Z" fill="#4B3F6B"/>
<path fill-rule="evenodd" clip-rule="evenodd" d="M-134 119.076C-134 171.8 -118.5 209.562 -61 233.953C-3.5 258.344 52.055 236.087 107.786 248.847C163.517 261.608 163.517 343.809 216 394.396C268.483 444.983 379.142 457.27 469.119 405.948C559.096 354.626 599.885 234.796 573 164.141C546.115 93.4854 494.593 29 246 29C-2.59314 29 -134 66.3533 -134 119.076Z" fill="#4B3F6B"/>
</g>
<g clip-path="url(#clip0_0_881)">
<rect x="64" y="52" width="769" height="64" rx="10" fill="white"/>
<path opacity="0.5" d="M106.66 87.24C106.66 87.9333 106.493 88.58 106.16 89.18C105.827 89.7667 105.32 90.24 104.64 90.6C103.96 90.96 103.127 91.14 102.14 91.14C101.18 91.14 100.32 90.9733 99.56 90.64C98.8 90.2933 98.1933 89.8133 97.74 89.2C97.2867 88.5867 97.0267 87.88 96.96 87.08H99.4C99.4667 87.6933 99.7267 88.22 100.18 88.66C100.647 89.1 101.267 89.32 102.04 89.32C102.733 89.32 103.267 89.1333 103.64 88.76C104.027 88.3867 104.22 87.9067 104.22 87.32C104.22 86.8133 104.08 86.4 103.8 86.08C103.52 85.7467 103.173 85.4867 102.76 85.3C102.347 85.1133 101.78 84.9 101.06 84.66C100.18 84.38 99.46 84.1 98.9 83.82C98.3533 83.54 97.8867 83.1333 97.5 82.6C97.1133 82.0667 96.92 81.3667 96.92 80.5C96.92 79.74 97.1067 79.0733 97.48 78.5C97.8533 77.9267 98.3867 77.4867 99.08 77.18C99.7733 76.86 100.573 76.7 101.48 76.7C102.92 76.7 104.06 77.0467 104.9 77.74C105.753 78.4333 106.24 79.34 106.36 80.46H103.9C103.807 79.9267 103.553 79.4733 103.14 79.1C102.74 78.7133 102.187 78.52 101.48 78.52C100.84 78.52 100.327 78.6867 99.94 79.02C99.5533 79.34 99.36 79.8067 99.36 80.42C99.36 80.9 99.4933 81.3 99.76 81.62C100.027 81.9267 100.36 82.1733 100.76 82.36C101.173 82.5333 101.733 82.74 102.44 82.98C103.333 83.26 104.06 83.5467 104.62 83.84C105.193 84.12 105.673 84.5333 106.06 85.08C106.46 85.6267 106.66 86.3467 106.66 87.24ZM115.252 79.8C116.532 79.8 117.559 80.2133 118.332 81.04C119.106 81.8667 119.493 83.0467 119.493 84.58V91H117.213V84.82C117.213 83.8333 116.959 83.0733 116.452 82.54C115.946 81.9933 115.252 81.72 114.372 81.72C113.466 81.72 112.739 82.0133 112.192 82.6C111.646 83.1733 111.372 84.02 111.372 85.14V91H109.092V76.2H111.372V82.4C111.666 81.5733 112.159 80.9333 112.852 80.48C113.546 80.0267 114.346 79.8 115.252 79.8ZM127.349 79.84C128.416 79.84 129.376 80.0667 130.229 80.52C131.082 80.9733 131.749 81.6267 132.229 82.48C132.709 83.3333 132.949 84.3333 132.949 85.48C132.949 86.64 132.709 87.6467 132.229 88.5C131.749 89.3533 131.082 90.0067 130.229 90.46C129.376 90.9133 128.416 91.14 127.349 91.14C126.282 91.14 125.322 90.9133 124.469 90.46C123.629 90.0067 122.962 89.3533 122.469 88.5C121.989 87.6333 121.749 86.6267 121.749 85.48C121.749 84.3333 121.989 83.3333 122.469 82.48C122.962 81.6267 123.629 80.9733 124.469 80.52C125.322 80.0667 126.282 79.84 127.349 79.84ZM127.349 81.82C126.762 81.82 126.222 81.9533 125.729 82.22C125.236 82.4867 124.836 82.9 124.529 83.46C124.236 84.0067 124.089 84.68 124.089 85.48C124.089 86.2933 124.236 86.9733 124.529 87.52C124.836 88.0667 125.236 88.4733 125.729 88.74C126.222 89.0067 126.762 89.14 127.349 89.14C127.936 89.14 128.476 89.0067 128.969 88.74C129.462 88.4733 129.856 88.0667 130.149 87.52C130.456 86.9733 130.609 86.2933 130.609 85.48C130.609 84.68 130.456 84.0067 130.149 83.46C129.856 82.9 129.462 82.4867 128.969 82.22C128.476 81.9533 127.936 81.82 127.349 81.82ZM137.571 82.14C137.944 81.42 138.478 80.8533 139.171 80.44C139.864 80.0133 140.664 79.8 141.571 79.8V82.28H140.891C139.891 82.28 139.084 82.5267 138.471 83.02C137.871 83.5 137.571 84.3 137.571 85.42V91H135.291V79.98H137.571V82.14ZM148.969 89.02V91H147.569C146.396 91 145.503 90.72 144.889 90.16C144.289 89.5867 143.989 88.64 143.989 87.32V81.92H142.409V79.98H143.989V77.24H146.289V79.98H148.949V81.92H146.289V87.36C146.289 87.9867 146.403 88.42 146.629 88.66C146.869 88.9 147.283 89.02 147.869 89.02H148.969ZM161.495 84.96C161.495 85.3333 161.468 85.66 161.415 85.94H152.935C152.975 87.0733 153.288 87.9133 153.875 88.46C154.462 89.0067 155.188 89.28 156.055 89.28C156.815 89.28 157.455 89.0867 157.975 88.7C158.508 88.3133 158.835 87.8 158.955 87.16H161.395C161.248 87.9333 160.942 88.62 160.475 89.22C160.008 89.82 159.402 90.2933 158.655 90.64C157.908 90.9733 157.075 91.14 156.155 91.14C155.088 91.14 154.142 90.9133 153.315 90.46C152.502 90.0067 151.862 89.3533 151.395 88.5C150.928 87.6467 150.695 86.64 150.695 85.48C150.695 84.3333 150.928 83.3333 151.395 82.48C151.862 81.6267 152.502 80.9733 153.315 80.52C154.142 80.0667 155.088 79.84 156.155 79.84C157.235 79.84 158.175 80.0667 158.975 80.52C159.788 80.96 160.408 81.5733 160.835 82.36C161.275 83.1333 161.495 84 161.495 84.96ZM159.195 84.9C159.222 84.18 159.095 83.58 158.815 83.1C158.548 82.6067 158.175 82.2467 157.695 82.02C157.228 81.78 156.715 81.66 156.155 81.66C155.262 81.66 154.515 81.9333 153.915 82.48C153.315 83.0267 152.988 83.8333 152.935 84.9H159.195ZM170.006 79.8C171.286 79.8 172.313 80.2133 173.086 81.04C173.86 81.8667 174.246 83.0467 174.246 84.58V91H171.966V84.82C171.966 83.8333 171.713 83.0733 171.206 82.54C170.7 81.9933 170.006 81.72 169.126 81.72C168.22 81.72 167.493 82.0133 166.946 82.6C166.4 83.1733 166.126 84.02 166.126 85.14V91H163.846V79.98H166.126V82.4C166.42 81.5733 166.913 80.9333 167.606 80.48C168.3 80.0267 169.1 79.8 170.006 79.8ZM186.32 79.84C187.32 79.84 188.174 80.0867 188.88 80.58C189.587 81.0733 190.087 81.7267 190.38 82.54V79.98H192.66V91H190.38V88.44C190.087 89.2533 189.587 89.9067 188.88 90.4C188.174 90.8933 187.32 91.14 186.32 91.14C185.36 91.14 184.5 90.9133 183.74 90.46C182.994 90.0067 182.407 89.3533 181.98 88.5C181.554 87.6467 181.34 86.64 181.34 85.48C181.34 84.3333 181.554 83.3333 181.98 82.48C182.407 81.6267 182.994 80.9733 183.74 80.52C184.5 80.0667 185.36 79.84 186.32 79.84ZM187.02 81.84C186.007 81.84 185.194 82.1667 184.58 82.82C183.98 83.46 183.68 84.3467 183.68 85.48C183.68 86.6133 183.98 87.5067 184.58 88.16C185.194 88.8 186.007 89.12 187.02 89.12C187.66 89.12 188.234 88.9733 188.74 88.68C189.247 88.3733 189.647 87.9467 189.94 87.4C190.234 86.8533 190.38 86.2133 190.38 85.48C190.38 84.76 190.234 84.1267 189.94 83.58C189.647 83.02 189.247 82.5933 188.74 82.3C188.234 81.9933 187.66 81.84 187.02 81.84ZM202.664 76.2V91H200.384V76.2H202.664ZM205.253 76.78C205.253 76.3933 205.386 76.0733 205.653 75.82C205.92 75.5667 206.273 75.44 206.713 75.44C207.153 75.44 207.506 75.5667 207.773 75.82C208.053 76.0733 208.193 76.3933 208.193 76.78C208.193 77.1667 208.053 77.48 207.773 77.72C207.506 77.96 207.153 78.08 206.713 78.08C206.273 78.08 205.92 77.96 205.653 77.72C205.386 77.48 205.253 77.1667 205.253 76.78ZM207.853 79.98V91H205.573V79.98H207.853ZM216.922 79.8C218.202 79.8 219.229 80.2133 220.002 81.04C220.775 81.8667 221.162 83.0467 221.162 84.58V91H218.882V84.82C218.882 83.8333 218.629 83.0733 218.122 82.54C217.615 81.9933 216.922 81.72 216.042 81.72C215.135 81.72 214.409 82.0133 213.862 82.6C213.315 83.1733 213.042 84.02 213.042 85.14V91H210.762V79.98H213.042V82.4C213.335 81.5733 213.829 80.9333 214.522 80.48C215.215 80.0267 216.015 79.8 216.922 79.8ZM230.218 91L226.258 86.1V91H223.978V76.2H226.258V84.68L230.178 79.98H232.918L228.118 85.46L233.038 91H230.218ZM245.673 79.8C246.953 79.8 247.979 80.2133 248.753 81.04C249.526 81.8667 249.913 83.0467 249.913 84.58V91H247.633V84.82C247.633 83.8333 247.379 83.0733 246.873 82.54C246.366 81.9933 245.673 81.72 244.793 81.72C243.886 81.72 243.159 82.0133 242.613 82.6C242.066 83.1733 241.793 84.02 241.793 85.14V91H239.513V76.2H241.793V82.4C242.086 81.5733 242.579 80.9333 243.273 80.48C243.966 80.0267 244.766 79.8 245.673 79.8ZM262.969 84.96C262.969 85.3333 262.943 85.66 262.889 85.94H254.409C254.449 87.0733 254.763 87.9133 255.349 88.46C255.936 89.0067 256.663 89.28 257.529 89.28C258.289 89.28 258.929 89.0867 259.449 88.7C259.983 88.3133 260.309 87.8 260.429 87.16H262.869C262.723 87.9333 262.416 88.62 261.949 89.22C261.483 89.82 260.876 90.2933 260.129 90.64C259.383 90.9733 258.549 91.14 257.629 91.14C256.563 91.14 255.616 90.9133 254.789 90.46C253.976 90.0067 253.336 89.3533 252.869 88.5C252.403 87.6467 252.169 86.64 252.169 85.48C252.169 84.3333 252.403 83.3333 252.869 82.48C253.336 81.6267 253.976 80.9733 254.789 80.52C255.616 80.0667 256.563 79.84 257.629 79.84C258.709 79.84 259.649 80.0667 260.449 80.52C261.263 80.96 261.883 81.5733 262.309 82.36C262.749 83.1333 262.969 84 262.969 84.96ZM260.669 84.9C260.696 84.18 260.569 83.58 260.289 83.1C260.023 82.6067 259.649 82.2467 259.169 82.02C258.703 81.78 258.189 81.66 257.629 81.66C256.736 81.66 255.989 81.9333 255.389 82.48C254.789 83.0267 254.463 83.8333 254.409 84.9H260.669ZM267.601 82.14C267.974 81.42 268.507 80.8533 269.201 80.44C269.894 80.0133 270.694 79.8 271.601 79.8V82.28H270.921C269.921 82.28 269.114 82.5267 268.501 83.02C267.901 83.5 267.601 84.3 267.601 85.42V91H265.321V79.98H267.601V82.14ZM283.699 84.96C283.699 85.3333 283.672 85.66 283.619 85.94H275.139C275.179 87.0733 275.492 87.9133 276.079 88.46C276.666 89.0067 277.392 89.28 278.259 89.28C279.019 89.28 279.659 89.0867 280.179 88.7C280.712 88.3133 281.039 87.8 281.159 87.16H283.599C283.452 87.9333 283.146 88.62 282.679 89.22C282.212 89.82 281.606 90.2933 280.859 90.64C280.112 90.9733 279.279 91.14 278.359 91.14C277.292 91.14 276.346 90.9133 275.519 90.46C274.706 90.0067 274.066 89.3533 273.599 88.5C273.132 87.6467 272.899 86.64 272.899 85.48C272.899 84.3333 273.132 83.3333 273.599 82.48C274.066 81.6267 274.706 80.9733 275.519 80.52C276.346 80.0667 277.292 79.84 278.359 79.84C279.439 79.84 280.379 80.0667 281.179 80.52C281.992 80.96 282.612 81.5733 283.039 82.36C283.479 83.1333 283.699 84 283.699 84.96ZM281.399 84.9C281.426 84.18 281.299 83.58 281.019 83.1C280.752 82.6067 280.379 82.2467 279.899 82.02C279.432 81.78 278.919 81.66 278.359 81.66C277.466 81.66 276.719 81.9333 276.119 82.48C275.519 83.0267 275.192 83.8333 275.139 84.9H281.399ZM287.85 88.48V91H285.27V88.48H287.85ZM291.809 88.48V91H289.229V88.48H291.809ZM295.767 88.48V91H293.187V88.48H295.767Z" fill="#34313D"/>
</g>
<g clip-path="url(#clip1_0_881)">
<rect x="857" y="52" width="188" height="64" rx="10" fill="#2BD0D0"/>
<path d="M909.34 88.02C909.34 88.7667 909.147 89.4533 908.76 90.08C908.387 90.7067 907.827 91.2067 907.08 91.58C906.347 91.9533 905.453 92.14 904.4 92.14C902.813 92.14 901.507 91.7533 900.48 90.98C899.453 90.2067 898.893 89.1267 898.8 87.74H902.44C902.493 88.2733 902.68 88.6933 903 89C903.333 89.3067 903.753 89.46 904.26 89.46C904.7 89.46 905.047 89.34 905.3 89.1C905.553 88.86 905.68 88.54 905.68 88.14C905.68 87.78 905.56 87.48 905.32 87.24C905.093 87 904.807 86.8067 904.46 86.66C904.113 86.5 903.633 86.3133 903.02 86.1C902.127 85.7933 901.393 85.5 900.82 85.22C900.26 84.9267 899.773 84.5 899.36 83.94C898.96 83.3667 898.76 82.6267 898.76 81.72C898.76 80.88 898.973 80.1533 899.4 79.54C899.827 78.9267 900.413 78.46 901.16 78.14C901.92 77.8067 902.787 77.64 903.76 77.64C905.333 77.64 906.58 78.0133 907.5 78.76C908.433 79.5067 908.96 80.5333 909.08 81.84H905.38C905.313 81.3733 905.14 81.0067 904.86 80.74C904.593 80.46 904.227 80.32 903.76 80.32C903.36 80.32 903.033 80.4267 902.78 80.64C902.54 80.8533 902.42 81.1667 902.42 81.58C902.42 81.9133 902.527 82.2 902.74 82.44C902.967 82.6667 903.247 82.8533 903.58 83C903.913 83.1467 904.393 83.3333 905.02 83.56C905.927 83.8667 906.667 84.1733 907.24 84.48C907.813 84.7733 908.307 85.2067 908.72 85.78C909.133 86.3533 909.34 87.1 909.34 88.02ZM918.311 80.72C919.591 80.72 920.604 81.1467 921.351 82C922.111 82.8533 922.491 84.0267 922.491 85.52V92H919.071V85.92C919.071 85.1733 918.871 84.5933 918.471 84.18C918.084 83.7533 917.564 83.54 916.911 83.54C916.217 83.54 915.664 83.76 915.251 84.2C914.851 84.64 914.651 85.2667 914.651 86.08V92H911.231V77.2H914.651V82.88C914.971 82.2133 915.444 81.6867 916.071 81.3C916.711 80.9133 917.457 80.72 918.311 80.72ZM929.966 80.7C931.073 80.7 932.06 80.9333 932.926 81.4C933.806 81.8533 934.493 82.5133 934.986 83.38C935.493 84.2467 935.746 85.26 935.746 86.42C935.746 87.58 935.493 88.5933 934.986 89.46C934.493 90.3267 933.806 90.9933 932.926 91.46C932.06 91.9133 931.073 92.14 929.966 92.14C928.86 92.14 927.866 91.9133 926.986 91.46C926.106 90.9933 925.413 90.3267 924.906 89.46C924.413 88.5933 924.166 87.58 924.166 86.42C924.166 85.26 924.413 84.2467 924.906 83.38C925.413 82.5133 926.106 81.8533 926.986 81.4C927.866 80.9333 928.86 80.7 929.966 80.7ZM929.966 83.66C929.313 83.66 928.76 83.9 928.306 84.38C927.866 84.8467 927.646 85.5267 927.646 86.42C927.646 87.3133 927.866 87.9933 928.306 88.46C928.76 88.9267 929.313 89.16 929.966 89.16C930.62 89.16 931.166 88.9267 931.606 88.46C932.046 87.9933 932.266 87.3133 932.266 86.42C932.266 85.5267 932.046 84.8467 931.606 84.38C931.166 83.9 930.62 83.66 929.966 83.66ZM940.94 82.94C941.367 82.26 941.913 81.72 942.58 81.32C943.26 80.92 943.993 80.72 944.78 80.72V84.38H943.8C942.893 84.38 942.187 84.5733 941.68 84.96C941.187 85.3467 940.94 86 940.94 86.92V92H937.52V80.84H940.94V82.94ZM952.531 89.06V92H950.991C949.685 92 948.665 91.68 947.931 91.04C947.211 90.3867 946.851 89.3133 946.851 87.82V83.72H945.351V80.84H946.851V78.1H950.271V80.84H952.511V83.72H950.271V87.88C950.271 88.32 950.358 88.6267 950.531 88.8C950.718 88.9733 951.025 89.06 951.451 89.06H952.531ZM965.053 86.12C965.053 86.4 965.02 86.7067 964.953 87.04H957.213C957.253 87.88 957.467 88.4867 957.853 88.86C958.24 89.22 958.733 89.4 959.333 89.4C959.84 89.4 960.26 89.2733 960.593 89.02C960.927 88.7667 961.147 88.44 961.253 88.04H964.873C964.727 88.8267 964.407 89.5333 963.913 90.16C963.42 90.7733 962.793 91.26 962.033 91.62C961.273 91.9667 960.427 92.14 959.493 92.14C958.4 92.14 957.427 91.9133 956.573 91.46C955.733 90.9933 955.073 90.3267 954.593 89.46C954.113 88.5933 953.873 87.58 953.873 86.42C953.873 85.2467 954.107 84.2333 954.573 83.38C955.053 82.5133 955.72 81.8533 956.573 81.4C957.427 80.9333 958.4 80.7 959.493 80.7C960.6 80.7 961.573 80.9267 962.413 81.38C963.253 81.8333 963.9 82.4733 964.353 83.3C964.82 84.1133 965.053 85.0533 965.053 86.12ZM961.593 85.6C961.607 84.8667 961.407 84.32 960.993 83.96C960.593 83.5867 960.093 83.4 959.493 83.4C958.867 83.4 958.347 83.5867 957.933 83.96C957.52 84.3333 957.287 84.88 957.233 85.6H961.593ZM973.916 80.72C975.196 80.72 976.21 81.1467 976.956 82C977.716 82.8533 978.096 84.0267 978.096 85.52V92H974.676V85.92C974.676 85.1733 974.476 84.5933 974.076 84.18C973.69 83.7533 973.17 83.54 972.516 83.54C971.823 83.54 971.27 83.76 970.856 84.2C970.456 84.64 970.256 85.2667 970.256 86.08V92H966.836V80.84H970.256V82.88C970.576 82.2133 971.05 81.6867 971.676 81.3C972.316 80.9133 973.063 80.72 973.916 80.72ZM987.776 77.86V92H984.356V77.86H987.776ZM996.457 89.06V92H994.917C993.61 92 992.59 91.68 991.857 91.04C991.137 90.3867 990.777 89.3133 990.777 87.82V83.72H989.277V80.84H990.777V78.1H994.197V80.84H996.437V83.72H994.197V87.88C994.197 88.32 994.284 88.6267 994.457 88.8C994.644 88.9733 994.95 89.06 995.377 89.06H996.457ZM1003.06 77.16L1002.64 86.94H999.739L999.319 77.16H1003.06ZM1002.98 88.58V92H999.419V88.58H1002.98Z" fill="white"/>
</g>
<defs>
<clipPath id="clip0_0_881">
<rect width="769" height="64" fill="white" transform="translate(64 52)"/>
</clipPath>
<clipPath id="clip1_0_881">
<rect width="188" height="64" fill="white" transform="translate(857 52)"/>
</clipPath>
</defs>
</svg>
